<svg width="390" height="363" viewBox="0 0 390 363" fill="none" xmlns="http://www.w3.org/2000/svg">
<g opacity="0.58">
<path d="M279.728 219.862C278.347 239.373 269.038 261.987 250.755 276.213C232.5 290.587 204.965 296.788 180.235 293.355C155.476 289.773 133.384 276.739 112.531 261.151C91.7079 245.712 72.124 227.72 68.9012 206.962C65.5399 186.386 78.5104 162.896 91.9702 141.002C105.598 119.076 119.824 98.4162 140.319 87.4478C160.646 76.5126 187.41 75.2353 216.697 74.3837C245.985 73.532 277.994 73.221 286.971 88.6883C295.977 104.304 282.118 135.664 278.507 159.771C274.699 183.762 281.108 200.351 279.728 219.862Z" fill="#3E08C6"/>
</g>
</svg>
